<svg id="logo-unibb" xmlns="http://www.w3.org/2000/svg" xmlns:xlink="http://www.w3.org/1999/xlink" width="133.278" height="33.475" viewBox="0 0 133.278 33.475">
  <defs>
    <clipPath id="clip-path">
      <rect id="Retângulo_5200" data-name="Retângulo 5200" width="133.278" height="32.901" fill="none"/>
    </clipPath>
  </defs>
  <g id="Grupo_12426" data-name="Grupo 12426">
    <g id="Grupo_12425" data-name="Grupo 12425">
      <g id="Grupo_12424" data-name="Grupo 12424" clip-path="url(#clip-path)">
        <path id="Caminho_53372" data-name="Caminho 53372" d="M5.5,43.958a10.807,10.807,0,0,1-4.09-4.775A17.237,17.237,0,0,1,0,31.95V17.243H4.835V31.87A10.644,10.644,0,0,0,6.709,38.6a6.312,6.312,0,0,0,5.258,2.377,6.109,6.109,0,0,0,5.218-2.337q1.753-2.336,1.753-6.769V17.243h4.835V31.95a16.759,16.759,0,0,1-1.451,7.172,11.17,11.17,0,0,1-4.13,4.815,11.379,11.379,0,0,1-6.265,1.713A11.788,11.788,0,0,1,5.5,43.958" transform="translate(0 -12.749)" fill="#000b18"/>
        <path id="Caminho_53373" data-name="Caminho 53373" d="M109.922,63.577V42.3h4.352v3.385a7.017,7.017,0,0,1,2.619-2.7,7.654,7.654,0,0,1,3.989-1.008,7.3,7.3,0,0,1,6.185,2.841,12.189,12.189,0,0,1,2.156,7.555v11.2h-4.755V52.536a7.626,7.626,0,0,0-1.168-4.594,4.045,4.045,0,0,0-3.465-1.572,4.807,4.807,0,0,0-3.788,1.592,6.174,6.174,0,0,0-1.41,4.251V63.577Z" transform="translate(-81.273 -31.038)" fill="#000b18"/>
        <path id="Caminho_53374" data-name="Caminho 53374" d="M206.92,39.229h-4.714V17.954h4.714Zm-4.473-25.1a2.844,2.844,0,0,1-.846-2.1,2.914,2.914,0,0,1,.846-2.116,2.86,2.86,0,0,1,2.135-.866,2.935,2.935,0,0,1,2.136.826,2.781,2.781,0,0,1,.846,2.075,3,3,0,0,1-.826,2.156,2.841,2.841,0,0,1-2.156.866,2.893,2.893,0,0,1-2.135-.846" transform="translate(-149.058 -6.691)" fill="#000b18"/>
        <path id="Caminho_53375" data-name="Caminho 53375" d="M255.626,41.218a5.862,5.862,0,0,0,3.546-.927,3.111,3.111,0,0,0,1.249-2.659q0-3.506-4.714-5.158a50.455,50.455,0,0,1-6.769,1.491v7.253ZM248.937,29.9a28.317,28.317,0,0,0,7.616-1.954q2.337-1.149,2.337-3.123a3.063,3.063,0,0,0-1.309-2.659,6.4,6.4,0,0,0-3.727-.927h-4.916Zm-4.513,15.392V17.243h9.51a11.439,11.439,0,0,1,7.031,1.954,6.4,6.4,0,0,1,2.6,5.419,6.781,6.781,0,0,1-3.385,5.923q5.117,2.62,5.117,7.253a6.91,6.91,0,0,1-1.128,3.888,7.384,7.384,0,0,1-3.223,2.659,11.845,11.845,0,0,1-4.916.947Z" transform="translate(-180.72 -12.749)" fill="#000b18"/>
        <path id="Caminho_53376" data-name="Caminho 53376" d="M353.024,41.218a5.862,5.862,0,0,0,3.546-.927,3.111,3.111,0,0,0,1.249-2.659q0-3.506-4.715-5.158a50.453,50.453,0,0,1-6.769,1.491v7.253ZM346.335,29.9a28.316,28.316,0,0,0,7.616-1.954q2.337-1.149,2.337-3.123a3.063,3.063,0,0,0-1.309-2.659,6.4,6.4,0,0,0-3.727-.927h-4.916Zm-4.513,15.392V17.243h9.509a11.439,11.439,0,0,1,7.031,1.954,6.4,6.4,0,0,1,2.6,5.419,6.781,6.781,0,0,1-3.385,5.923q5.117,2.62,5.117,7.253a6.91,6.91,0,0,1-1.128,3.888,7.384,7.384,0,0,1-3.223,2.659,11.845,11.845,0,0,1-4.916.947Z" transform="translate(-252.734 -12.749)" fill="#000b18"/>
      </g>
    </g>
    <path id="Caminho_53377" data-name="Caminho 53377" d="M450,0l-7.3,4.883L440.827,6.14l1.878,1.242,1.943,1.288L449.2,5.617l-1.975-1.307,2.53-1.731,5.405,3.658-8.752,5.927,1.844,1.242,9.031-6.059L459.1,6.122,457.287,4.9Z" transform="translate(-325.936 0)" fill="#000b18"/>
    <path id="Caminho_53378" data-name="Caminho 53378" d="M442.614,58.776l1.861-1.225-1.861-1.274-.017-.015L440.7,57.551l.016,2.481Z" transform="translate(-325.844 -41.598)" fill="#000b18"/>
    <path id="Caminho_53379" data-name="Caminho 53379" d="M442.752,25.223l-1.861,1.242,1.861,1.256,7.233,4.835,7.348-4.9,1.844-1.225-1.844-1.227L455.357,23.9,450.8,26.955l1.976,1.29-2.531,1.715-5.4-3.626,8.752-5.927-1.845-1.243Z" transform="translate(-325.982 -14.169)" fill="#000b18"/>
    <path id="Caminho_53380" data-name="Caminho 53380" d="M498.839,1.459l-1.812,1.207,1.812,1.243.065.047,1.845-1.24.017-2.531Z" transform="translate(-367.488 -0.136)" fill="#000b18"/>
  </g>
</svg>
